<svg width="32" height="22" viewBox="0 0 32 22" fill="none" xmlns="http://www.w3.org/2000/svg">
<path d="M1.48011 18.4676C2.10035 20.6768 3.99777 21.0811 4.12435 21.1586C7.24706 22.0128 24.7504 22.0153 27.92 21.1586C30.0908 20.5281 30.4895 18.5948 30.5642 18.4676C31.3908 14.0518 31.4452 8.29489 30.5262 3.28414L30.5642 3.53328C29.944 1.32408 28.0465 0.919862 27.92 0.842324C24.839 0.00211509 7.29009 -0.0296628 4.12435 0.842324C1.95352 1.47407 1.55479 3.40617 1.48011 3.53328C0.595323 8.17413 0.55102 13.4988 1.48011 18.4676ZM12.9811 15.642V6.37169L20.9125 11.0138L12.9811 15.642Z" fill="white"/>
</svg>
